<svg xmlns="http://www.w3.org/2000/svg" width="348" height="56" viewBox="4 20 348 56" fill="none">
  <g transform="translate(0 16)">
    <!-- Row 1 -->
    <rect x="10" y="10" width="8" height="8" rx="2" fill="#2563EB"/>
    <rect x="22" y="10" width="8" height="8" rx="2" fill="#E2E8F0"/>
    <rect x="34" y="10" width="8" height="8" rx="2" fill="#93C5FD"/>
    <rect x="46" y="10" width="8" height="8" rx="2" fill="#E2E8F0"/>

    <!-- Row 2 -->
    <rect x="10" y="22" width="8" height="8" rx="2" fill="#E2E8F0"/>
    <rect x="22" y="22" width="8" height="8" rx="2" fill="#2563EB"/>
    <rect x="34" y="22" width="8" height="8" rx="2" fill="#93C5FD"/>
    <rect x="46" y="22" width="8" height="8" rx="2" fill="#E2E8F0"/>

    <!-- Row 3 (cursor row) -->
    <rect x="10" y="34" width="8" height="8" rx="2" fill="#93C5FD"/>
    <rect x="22" y="34" width="8" height="8" rx="2" fill="#93C5FD"/>
    <rect x="34" y="34" width="8" height="8" rx="2" fill="#60A5FA"/>
    <rect x="46" y="34" width="8" height="8" rx="2" fill="#93C5FD"/>

    <!-- Row 4 -->
    <rect x="10" y="46" width="8" height="8" rx="2" fill="#E2E8F0"/>
    <rect x="22" y="46" width="8" height="8" rx="2" fill="#E2E8F0"/>
    <rect x="34" y="46" width="8" height="8" rx="2" fill="#93C5FD"/>
    <rect x="46" y="46" width="8" height="8" rx="2" fill="#E2E8F0"/>

    <!-- Active checks -->
    <path d="M12 14 L14 16 L17 12" stroke="#F5C94A" stroke-width="2" stroke-linecap="round" stroke-linejoin="round"/>
    <path d="M24 26 L26 28 L29 24" stroke="#F5C94A" stroke-width="2" stroke-linecap="round" stroke-linejoin="round"/>
  </g>

  <text x="72" y="48" fill="#111827" font-size="32" font-family="Sora, Manrope, 'Segoe UI', Arial, sans-serif" dominant-baseline="middle" xml:space="preserve"><tspan font-weight="500">Better</tspan><tspan font-weight="700">PatchTool</tspan></text>
</svg>
